<?xml version="1.0" encoding="UTF-8" standalone="no"?>
<!-- Generator: Adobe Illustrator 16.0.0, SVG Export Plug-In . SVG Version: 6.00 Build 0)  -->

<svg
   version="1.1"
   id="Capa_1"
   x="0px"
   y="0px"
   width="249.33826"
   height="247.54298"
   viewBox="0 0 249.33826 247.54298"
   xml:space="preserve"
   sodipodi:docname="menu-close.svg"
   inkscape:version="1.3.1 (91b66b0783, 2023-11-16)"
   xmlns:inkscape="http://www.inkscape.org/namespaces/inkscape"
   xmlns:sodipodi="http://sodipodi.sourceforge.net/DTD/sodipodi-0.dtd"
   xmlns="http://www.w3.org/2000/svg"
   xmlns:svg="http://www.w3.org/2000/svg"><defs
   id="defs19" /><sodipodi:namedview
   id="namedview19"
   pagecolor="#ffffff"
   bordercolor="#111111"
   borderopacity="1"
   inkscape:showpageshadow="0"
   inkscape:pageopacity="0"
   inkscape:pagecheckerboard="1"
   inkscape:deskcolor="#d1d1d1"
   inkscape:zoom="1.8805603"
   inkscape:cx="124.431"
   inkscape:cy="122.83573"
   inkscape:window-width="3200"
   inkscape:window-height="1284"
   inkscape:window-x="2391"
   inkscape:window-y="-9"
   inkscape:window-maximized="1"
   inkscape:current-layer="g3" />
<g
   id="g4"
   transform="translate(0.10337192,-1.4219148)">
	<g
   id="g3">
		<path
   d="M 9.9724054,55.719403 194.77558,239.60468 c 12.45901,12.39713 32.60285,12.50755 45.06023,0.11446 12.44534,-12.3811 12.57843,-32.66379 0.11942,-45.06092 L 55.152056,10.772941 C 42.695171,-1.6220735 22.539295,-1.7289845 10.088997,10.657054 -2.3648666,23.055103 -2.4844796,43.32439 9.9724054,55.719403 Z M 40.657976,18.331206 63.594926,41.387155 40.538976,64.324104 17.602026,41.268155 Z"
   id="path1"
   sodipodi:nodetypes="ssssscsccccc" /><path
   d="M 239.15912,55.725873 54.355939,239.61115 c -12.45901,12.39713 -32.60285,12.50755 -45.0602298,0.11446 -12.4453398,-12.3811 -12.5784298,-32.66379 -0.11942,-45.06092 L 193.97947,10.779411 c 12.45688,-12.3950147 32.61276,-12.5019257 45.06306,-0.115887 12.45386,12.398049 12.57347,32.667336 0.11659,45.062349 z M 208.47355,18.337676 185.5366,41.393625 208.59255,64.330574 231.5295,41.274625 Z"
   id="path1-9"
   sodipodi:nodetypes="ssssscsccccc" />
		
		
	</g>
</g>
<g
   id="g5"
   transform="translate(0.10337192,-1.4219148)">
</g>
<g
   id="g6"
   transform="translate(0.10337192,-1.4219148)">
</g>
<g
   id="g7"
   transform="translate(0.10337192,-1.4219148)">
</g>
<g
   id="g8"
   transform="translate(0.10337192,-1.4219148)">
</g>
<g
   id="g9"
   transform="translate(0.10337192,-1.4219148)">
</g>
<g
   id="g10"
   transform="translate(0.10337192,-1.4219148)">
</g>
<g
   id="g11"
   transform="translate(0.10337192,-1.4219148)">
</g>
<g
   id="g12"
   transform="translate(0.10337192,-1.4219148)">
</g>
<g
   id="g13"
   transform="translate(0.10337192,-1.4219148)">
</g>
<g
   id="g14"
   transform="translate(0.10337192,-1.4219148)">
</g>
<g
   id="g15"
   transform="translate(0.10337192,-1.4219148)">
</g>
<g
   id="g16"
   transform="translate(0.10337192,-1.4219148)">
</g>
<g
   id="g17"
   transform="translate(0.10337192,-1.4219148)">
</g>
<g
   id="g18"
   transform="translate(0.10337192,-1.4219148)">
</g>
<g
   id="g19"
   transform="translate(0.10337192,-1.4219148)">
</g>
</svg>
